<?xml version="1.0"?>
<svg xmlns:rdf="http://www.w3.org/1999/02/22-rdf-syntax-ns#" xmlns="http://www.w3.org/2000/svg" xmlns:cc="http://web.resource.org/cc/" xmlns:xlink="http://www.w3.org/1999/xlink" xmlns:dc="http://purl.org/dc/elements/1.1/" xml:space="preserve" viewBox="-0.384 -0.575 511 454">
		<path d="m41.184 452.82c-22.68 0-41.184-18.51-41.184-41.26 0-7.2 1.944-14.328 5.544-20.592l213.84-370.37c15.912-27.504 55.44-27.432 71.28 0l213.91 370.37c3.6 6.336 5.472 13.392 5.472 20.592 0 22.752-18.36 41.112-41.112 41.256h-427.75z" fill="#ED171F"/>
		<polygon points="52.2 405.22 255.02 53.865 432.22 360.58 457.92 405.22" fill="#FEB82F"/>
		<path d="m314.06 224.5c0.288 2.088 1.44 3.96 3.096 5.184l31.464 22.032c2.016 1.44 3.24 3.744 3.24 6.192 0 1.008-0.216 2.016-0.576 2.952l-7.848 18.432c-1.512 3.528-5.76 4.896-9 3.024l-9.504-5.472c-4.82 15.64-27.93 12.19-27.93-4.16 0-3.6 1.44-7.056 3.816-9.72l-67.464-38.952c-4.824 15.624-27.936 12.168-27.936-4.176 0-3.672 1.368-7.056 3.816-9.72l-14.04-8.064c-3.024-1.728-4.032-5.616-2.304-8.712l9.504-16.416c1.368-2.376 4.104-3.6 6.84-3.024l12.6 2.664c0.648 0.144 1.368 0.216 2.016 0.216 1.584 0 3.096-0.36 4.464-1.152l21.24-11.232c2.304-1.296 5.112-1.224 7.344 0.072l49.752 28.728c2.016 1.152 3.384 3.24 3.744 5.544l3.67 25.77z"/>
		<polygon points="300.74 221.26 298.08 202.98 281.09 193.18 273.82 205.78" fill="#FEB82F"/>
		<polygon points="269.42 186.27 252.94 176.77 237.46 184.69 262.08 198.94" fill="#FEB82F"/>
		<path d="m423.14 344.96c-8.64 0.864-17.28-0.864-24.84-5.04-2.448-1.584-5.328-2.448-8.28-2.448-2.88 0-5.76 0.864-8.208 2.448-12.6 6.984-27.936 6.984-40.608 0-2.376-1.584-5.256-2.448-8.208-2.448-2.88 0-5.76 0.864-8.208 2.448-12.6 6.984-27.936 6.984-40.608 0-2.376-1.584-5.256-2.448-8.208-2.448s-5.832 0.864-8.28 2.448c-12.528 6.984-27.792 6.984-40.464 0-2.376-1.584-5.256-2.448-8.208-2.448v17.712c2.952 0 5.832 0.864 8.208 2.52 6.264 3.384 13.176 5.184 20.232 5.184 7.128 0 14.112-1.8 20.304-5.184 4.896-3.384 11.448-3.384 16.416 0 6.264 3.384 13.248 5.184 20.304 5.184 7.128 0 14.112-1.8 20.304-5.184 4.968-3.384 11.52-3.384 16.488 0 6.192 3.384 13.176 5.184 20.232 5.184 7.128 0 14.112-1.8 20.376-5.184 4.896-3.384 11.448-3.384 16.416 0 6.192 3.384 13.176 5.184 20.232 5.184 4.68 0 9.288-0.72 13.68-2.232l9.792 16.992c-1.08 0.432-2.16 0.936-3.168 1.584-12.6 6.984-27.864 6.984-40.536 0-2.448-1.584-5.328-2.52-8.28-2.52-2.88 0-5.76 0.936-8.208 2.52-12.6 6.984-27.936 6.984-40.608 0-2.376-1.584-5.256-2.52-8.208-2.52-2.88 0-5.76 0.936-8.208 2.52-12.6 6.984-27.936 6.984-40.608 0-2.376-1.584-5.256-2.52-8.208-2.52s-5.832 0.936-8.28 2.52c-12.528 6.984-27.792 6.984-40.464 0-2.376-1.584-5.256-2.52-8.208-2.52v28.512h-166.79l98.784-170.93h68.04v81.576c2.952 0 5.832 0.936 8.208 2.52 6.264 3.456 13.176 5.184 20.232 5.184 7.128 0 14.112-1.728 20.304-5.184 4.896-3.384 11.448-3.384 16.416 0 6.264 3.456 13.248 5.184 20.304 5.184 7.128 0 14.112-1.728 20.304-5.184 4.968-3.384 11.52-3.384 16.488 0 6.192 3.456 13.176 5.184 20.232 5.184 7.128 0 14.112-1.728 20.376-5.184 4.896-3.384 11.448-3.384 16.416 0 3.744 2.088 7.848 3.6 12.096 4.392l12.74 22.19z"/>
<metadata><rdf:RDF><cc:Work><dc:format>image/svg+xml</dc:format><dc:type rdf:resource="http://purl.org/dc/dcmitype/StillImage"/><cc:license rdf:resource="http://creativecommons.org/licenses/publicdomain/"/><dc:publisher><cc:Agent rdf:about="http://openclipart.org/"><dc:title>Openclipart</dc:title></cc:Agent></dc:publisher></cc:Work><cc:License rdf:about="http://creativecommons.org/licenses/publicdomain/"><cc:permits rdf:resource="http://creativecommons.org/ns#Reproduction"/><cc:permits rdf:resource="http://creativecommons.org/ns#Distribution"/><cc:permits rdf:resource="http://creativecommons.org/ns#DerivativeWorks"/></cc:License></rdf:RDF></metadata></svg>
