<?xml version="1.0" ?><!DOCTYPE svg  PUBLIC '-//W3C//DTD SVG 1.1//EN'  'http://www.w3.org/Graphics/SVG/1.1/DTD/svg11.dtd'><svg height="94px" id="Capa_1" style="enable-background:new 0 0 64 94;" version="1.1" viewBox="0 0 64 94" width="64px" xml:space="preserve" xmlns="http://www.w3.org/2000/svg" xmlns:xlink="http://www.w3.org/1999/xlink"><path d="M52,70c-4.938,0-9.178,2.986-11.019,7.25H24.5c-7.06,0-7.717-5.963-7.75-7.75V50.158c2.154,0.996,4.718,1.592,7.75,1.592  h16.481C42.821,56.014,47.062,59,52,59c6.627,0,12-5.371,12-12c0-6.625-5.373-12-12-12c-4.938,0-9.178,2.986-11.019,7.25H24.5  c-7.06,0-7.717-5.963-7.75-7.75V23.02C21.014,21.18,24,16.939,24,12c0-6.625-5.373-12-12-12S0,5.375,0,12  c0,4.939,2.986,9.178,7.25,11.02V69.5c0,6.934,4.594,17.25,17.25,17.25h16.481C42.821,91.014,47.062,94,52,94  c6.627,0,12-5.371,12-12C64,75.375,58.627,70,52,70z M52,40.078c3.823,0,6.923,3.1,6.923,6.922c0,3.824-3.1,6.924-6.923,6.924  c-3.822,0-6.923-3.1-6.923-6.924C45.077,43.178,48.178,40.078,52,40.078z M5.077,12c0-3.822,3.101-6.922,6.923-6.922  c3.823,0,6.923,3.1,6.923,6.922c0,3.824-3.1,6.924-6.923,6.924C8.178,18.924,5.077,15.824,5.077,12z M52,88.924  c-3.822,0-6.923-3.1-6.923-6.924c0-3.822,3.101-6.922,6.923-6.922c3.823,0,6.923,3.1,6.923,6.922  C58.923,85.824,55.823,88.924,52,88.924z"/><g/><g/><g/><g/><g/><g/><g/><g/><g/><g/><g/><g/><g/><g/><g/></svg>