<?xml version="1.0" ?><!DOCTYPE svg  PUBLIC '-//W3C//DTD SVG 1.1//EN'  'http://www.w3.org/Graphics/SVG/1.1/DTD/svg11.dtd'><svg enable-background="new 0 0 100 100" height="100px" id="Layer_1" version="1.1" viewBox="0 0 100 100" width="100px" xml:space="preserve" xmlns="http://www.w3.org/2000/svg" xmlns:xlink="http://www.w3.org/1999/xlink"><g><g><g><g/></g><g/></g></g><g><path d="M72,21v7h-4v-7h-4v7h-4v-7h-4v7h-4v-7h-4v7h-4v-7h-4v7h-4v-7h-4v7h-4v-7h-8v3h-4v58h60v-4h4V33V21H72z    M74,80H18V37h2v41h54V80z M78,76H22V33h56V76z" fill="#231F20"/><rect fill="#231F20" height="10" width="2" x="37" y="17"/><rect fill="#231F20" height="10" width="2" x="45" y="17"/><rect fill="#231F20" height="10" width="2" x="53" y="17"/><rect fill="#231F20" height="10" width="2" x="61" y="17"/><rect fill="#231F20" height="10" width="2" x="69" y="17"/><rect fill="#231F20" height="4" width="4" x="28" y="41"/><rect fill="#231F20" height="4" width="4" x="36" y="41"/><rect fill="#231F20" height="4" width="4" x="44" y="41"/><rect fill="#231F20" height="4" width="4" x="52" y="41"/><rect fill="#231F20" height="4" width="4" x="60" y="41"/><rect fill="#231F20" height="4" width="4" x="68" y="41"/><rect fill="#231F20" height="4" width="4" x="28" y="49"/><rect fill="#231F20" height="4" width="4" x="36" y="49"/><rect fill="#231F20" height="4" width="4" x="44" y="49"/><rect fill="#231F20" height="4" width="4" x="52" y="49"/><rect fill="#231F20" height="4" width="4" x="60" y="49"/><rect fill="#231F20" height="4" width="4" x="68" y="49"/><rect fill="#231F20" height="4" width="4" x="28" y="57"/><rect fill="#231F20" height="4" width="4" x="36" y="57"/><rect fill="#231F20" height="4" width="4" x="44" y="57"/><rect fill="#231F20" height="4" width="4" x="52" y="57"/><rect fill="#231F20" height="4" width="4" x="60" y="57"/><rect fill="#231F20" height="4" width="4" x="68" y="57"/><rect fill="#231F20" height="4" width="4" x="28" y="65"/><rect fill="#231F20" height="4" width="4" x="36" y="65"/><rect fill="#231F20" height="4" width="4" x="44" y="65"/><rect fill="#231F20" height="4" width="4" x="52" y="65"/><rect fill="#231F20" height="4" width="4" x="60" y="65"/><rect fill="#231F20" height="4" width="4" x="68" y="65"/><path d="M37.998,47.5c2.481,0,4.5-2.019,4.5-4.5s-2.019-4.5-4.5-4.5s-4.5,2.019-4.5,4.5S35.517,47.5,37.998,47.5z    M37.998,39.5c1.93,0,3.5,1.57,3.5,3.5s-1.57,3.5-3.5,3.5s-3.5-1.57-3.5-3.5S36.068,39.5,37.998,39.5z" fill="#231F20"/><path d="M53.998,63.5c2.481,0,4.5-2.019,4.5-4.5s-2.019-4.5-4.5-4.5s-4.5,2.019-4.5,4.5S51.517,63.5,53.998,63.5z    M53.998,55.5c1.93,0,3.5,1.57,3.5,3.5s-1.57,3.5-3.5,3.5s-3.5-1.57-3.5-3.5S52.068,55.5,53.998,55.5z" fill="#231F20"/><rect fill="#231F20" height="10" width="2" x="29" y="17"/></g></svg>