<?xml version="1.0" ?><svg style="enable-background:new 0 0 32 32;" version="1.1" viewBox="0 0 32 32" xml:space="preserve" xmlns="http://www.w3.org/2000/svg" xmlns:xlink="http://www.w3.org/1999/xlink"><style type="text/css">
	.st0{fill:none;stroke:#000000;stroke-width:2;stroke-linejoin:round;stroke-miterlimit:10;}
	.st1{fill:none;stroke:#000000;stroke-width:2;stroke-miterlimit:10;}
	.st2{fill:none;stroke:#000000;stroke-width:2;stroke-linecap:round;stroke-linejoin:round;stroke-miterlimit:10;}
</style><g id="Icons"><path class="st0" d="M26,20.5L25,19c-1.6-2.4-2.4-5.3-2.4-8.2c0-3.1-2-5.7-4.7-6.5C17.6,3.5,16.8,3,16,3s-1.6,0.5-1.9,1.3   c-2.7,0.8-4.7,3.4-4.7,6.5c0,2.9-0.8,5.8-2.4,8.2l-1,1.5c-0.4,0.7,0,1.5,0.8,1.5h18.3C25.9,22,26.4,21.1,26,20.5z"/><path class="st0" d="M19,25c0,1.7-1.3,3-3,3s-3-1.3-3-3"/></g><g id="uicon"><g/></g></svg>