<?xml version="1.0" ?><!DOCTYPE svg  PUBLIC '-//W3C//DTD SVG 1.1//EN'  'http://www.w3.org/Graphics/SVG/1.1/DTD/svg11.dtd'><svg enable-background="new 0 0 512 512" height="512px" id="Observatory" version="1.1" viewBox="0 0 512 512" width="512px" xml:space="preserve" xmlns="http://www.w3.org/2000/svg" xmlns:xlink="http://www.w3.org/1999/xlink"><path d="M401.218,405.644h-3.664h-66.313H306.87h-35.983v67.123h60.354v-46.123h50.918v42.666h15.395v3.457h30.177  v-67.123H401.218z M336.981,420.29h-5.74v-8.305h5.74V420.29z M358.243,420.29h-8.306v-8.305h8.306V420.29z M379.412,420.29h-8.306  v-8.305h8.306V420.29z" fill="#B8D2FF"/><path d="M335.28,350.892c-16.7,7.27-28.41,23.925-28.41,43.271v1.136h19.059v-1.136  C325.929,376.505,329.481,361.211,335.28,350.892z" fill="#B8D2FF"/><polygon fill="#B8D2FF" points="272.345,398.671 131.747,398.671 89.49,398.671 85.077,398.671 85.077,474.099 131.747,474.099   131.747,403.671 176.357,403.671 176.357,474.099 223.026,474.099 223.026,403.671 272.345,403.671 "/><path d="M263.121,338.074v-5.772c0-35.085-20.975-65.363-51.044-78.954c3.044,3.399,5.91,7.261,8.562,11.569  c11.123,18.076,17.249,42.008,17.249,67.385v5.772H263.121z" fill="#B8D2FF"/><path d="M401.218,395.298v-1.136c0-19.346-11.71-36.001-28.41-43.271c5.8,10.319,9.352,25.613,9.352,43.271v1.136  H401.218z" fill="#B8D2FF"/><path d="M176.357,245.845c-1.591,1.195-5.554,7.375-8.968,25.426c-3.147,16.641-4.881,38.316-4.881,61.034v5.77  h27.697v-5.77c0-22.719-1.733-44.394-4.881-61.034C181.911,253.22,177.948,247.04,176.357,245.845z" fill="#B8D2FF"/><rect fill="#B8D2FF" height="5.057" width="182.854" x="89.49" y="348.079"/><path d="M89.938,332.302v5.772h25.234v-5.772c0-25.377,6.126-49.309,17.248-67.385  c2.651-4.309,5.519-8.17,8.562-11.569C110.913,266.938,89.938,297.217,89.938,332.302z" fill="#B8D2FF"/><path d="M281.271,248.556l-4.841-6.734l-15.927,11.449c1.565,1.576,3.116,3.201,4.63,4.93  c0.351,0.4,0.692,0.805,1.034,1.212L281.271,248.556z" fill="#B8D2FF"/><path d="M247.437,183.859c1.586-2.266,3.496-4.251,5.651-5.884c-2.183-1.641-4.114-3.645-5.717-5.934  c-1.587,2.267-3.496,4.252-5.652,5.884C243.901,179.567,245.834,181.57,247.437,183.859z" fill="#B8D2FF"/><polygon fill="#B8D2FF" points="309.554,233.042 325.218,221.783 315.813,208.697 300.15,219.955 307.963,230.829 "/><path d="M395.729,277.868c1.587-2.266,3.496-4.252,5.652-5.883c-2.183-1.643-4.115-3.646-5.718-5.935  c-1.586,2.267-3.496,4.251-5.651,5.884C392.195,273.575,394.127,275.579,395.729,277.868z" fill="#B8D2FF"/><path d="M133.597,101.243h26.278h4.409h3.481v10h-3.481h-4.409c-3.952,0-7.168,3.3-7.168,7.355  s3.216,7.355,7.168,7.355h70.937c4.057,0,7.356-3.3,7.356-7.355s-3.3-7.355-7.356-7.355h-17.118h-5.341h-10.352v-10h10.352h5.341  c6.129,0,11.116-4.987,11.116-11.116c0-6.13-4.987-11.116-11.116-11.116h-80.097c-6.13,0-11.116,4.986-11.116,11.116  C122.48,96.256,127.467,101.243,133.597,101.243z" fill="#B8D2FF"/><path d="M355.878,171.699h-3.982c-3.304,0-5.992,2.765-5.992,6.162s2.688,6.161,5.992,6.161h70.614v-12.323h-21.999  h-4.824h-9.351v-10h9.351h4.824c5.271,0,9.559-4.287,9.559-9.558s-4.288-9.559-9.559-9.559h-72.354  c-5.271,0-9.559,4.288-9.559,9.559s4.288,9.558,9.559,9.558h23.738h3.982h3.146v10H355.878z" fill="#B8D2FF"/><path d="M350.065,132.583c13.069-12.6,17.319-32.069,10.533-49.055c-2.427-6.064-6.056-11.425-10.675-15.829  c-1.401,11.213-6.327,28.902-22.72,42.565c-16.356,13.63-34.635,15.305-45.908,14.684c6.6,10.051,16.987,17.055,28.944,19.377  c3.023-6.903,9.912-11.742,17.917-11.742H350.065z" fill="#B8D2FF"/><path d="M79.49,32.4V479.6h353.02V32.4H79.49z M281.674,338.074h-8.553v-5.772c0-51.642-40.737-93.946-91.764-96.47  v-5.833c14.278,0.471,50.004,4.816,76.252,34.789C277.782,287.823,281.131,324.835,281.674,338.074z M260.503,253.271l15.927-11.449  l4.841,6.734l-15.104,10.856c-0.342-0.407-0.684-0.812-1.034-1.212C263.619,256.472,262.068,254.847,260.503,253.271z   M273.122,413.671h9.223v-8.039h14.525V469.6h-23.748V413.671z M220.639,264.917c-2.651-4.309-5.518-8.17-8.562-11.569  c30.069,13.591,51.044,43.869,51.044,78.954v5.772h-25.233v-5.772C237.888,306.925,231.762,282.993,220.639,264.917z   M194.583,266.532c-1.511-7.34-3.2-13.307-5.104-17.97c8.394,3.739,16.174,11.081,22.643,21.595  c10.166,16.521,15.766,38.592,15.766,62.145v5.772h-27.682v-5.77C200.206,307.511,198.209,284.153,194.583,266.532z   M185.325,271.271c3.147,16.641,4.881,38.315,4.881,61.034v5.77h-27.697v-5.77c0-22.718,1.733-44.394,4.881-61.034  c3.414-18.051,7.377-24.23,8.968-25.426C177.948,247.04,181.911,253.22,185.325,271.271z M158.132,266.532  c-3.626,17.621-5.623,40.979-5.623,65.772v5.77h-27.337v-5.772c0-23.553,5.599-45.623,15.766-62.145  c6.359-10.335,13.986-17.602,22.216-21.398C161.283,253.393,159.621,259.298,158.132,266.532z M132.42,264.917  c-11.122,18.076-17.248,42.008-17.248,67.385v5.772H89.938v-5.772c0-35.085,20.976-65.363,51.044-78.954  C137.938,256.747,135.071,260.608,132.42,264.917z M272.345,348.079v5.057H89.49v-5.057H272.345z M263.122,363.136v25.535H89.939  v-25.535H263.122z M272.345,398.671v5H89.49v-5H272.345z M241.173,427.565v41.699h-13.146v-55.594h35.096v55.594h-11.949v-41.699  H241.173z M218.026,413.671v55.594h-13.247v-55.594H218.026z M194.779,413.671v55.594h-13.248v-55.594H194.779z M148.905,427.565  v41.699h-12.626v-55.594h35.252v55.594h-12.626v-41.699H148.905z M126.279,413.671v55.594h-12.867v-55.594H126.279z   M103.412,413.671v55.594H89.939v-55.594H103.412z M401.218,405.644v63.666h-19.059v-42.666h-56.23v42.666H306.87v-63.666H401.218z   M306.87,395.298v-1.136c0-19.346,11.71-36.001,28.41-43.271c-5.799,10.319-9.352,25.613-9.352,43.271v1.136H306.87z   M335.929,395.298v-1.136c0-26.999,9.564-47.174,18.115-47.174s18.115,20.175,18.115,47.174v1.136H335.929z M372.808,350.892  c16.7,7.27,28.41,23.925,28.41,43.271v1.136h-19.059v-1.136C382.159,376.505,378.607,361.211,372.808,350.892z M349.091,448.644  v20.666h-13.162v-32.666h36.23v32.666h-13.068v-20.666H349.091z M411.218,469.6v-63.968h11.292V469.6H411.218z M355.878,161.699  h-3.982h-23.738c-5.271,0-9.559-4.287-9.559-9.558s4.288-9.559,9.559-9.559h72.354c5.271,0,9.559,4.288,9.559,9.559  s-4.288,9.558-9.559,9.558h-4.824h-9.351v10h9.351h4.824h21.999v12.323h-70.614c-3.304,0-5.992-2.764-5.992-6.161  s2.688-6.162,5.992-6.162h3.982h3.146v-10H355.878z M310.24,144.325c-11.957-2.322-22.345-9.326-28.944-19.377  c11.273,0.621,29.552-1.054,45.908-14.684c16.393-13.663,21.318-31.353,22.72-42.565c4.619,4.404,8.248,9.765,10.675,15.829  c6.786,16.985,2.536,36.455-10.533,49.055h-21.908C320.152,132.583,313.264,137.422,310.24,144.325z M422.51,161.699h-4.952  c1.593-2.829,2.512-6.086,2.512-9.558c0-10.785-8.774-19.559-19.559-19.559H363.26c10.939-15.047,13.717-35.015,6.625-52.767  c-4.364-10.906-11.91-19.949-21.82-26.151l-8.058-5.043l0.41,9.497c0.12,2.777,0.588,27.624-19.615,44.463  c-19.742,16.452-42.812,12.304-47.238,11.304l-9.271-2.093l3.528,8.826c7.042,17.617,22.466,30.164,40.893,33.604  c1.044,9.809,9.364,17.476,19.444,17.476h8.96c-0.778,1.901-1.214,3.98-1.214,6.162c0,8.911,7.174,16.161,15.992,16.161h70.614  v201.609h-11.292v-1.47c0-31.526-25.648-57.174-57.174-57.174s-57.174,25.647-57.174,57.174v1.47h-14.525v-6.961h-9.223v-25.535  h9.223v-15.062h9.332l0.095-4.903c0.038-1.975,0.599-44.504-19.665-75.713l32.882-23.635l2.282,3.175l31.904-22.932l-21.079-29.326  l-31.904,22.933l2.282,3.175l-35.501,25.52c-31.434-26.112-68.786-26.611-76.756-26.389l-4.859,0.137v15.734  c-36.067,1.913-66.951,23.7-81.867,54.587V42.4h333.02V161.699z M284.549,235.984l9.762-7.017l4.841,6.735l-9.762,7.017  L284.549,235.984z M300.15,219.955l15.662-11.258l9.405,13.086l-15.664,11.259l-1.591-2.213L300.15,219.955z" fill="#1F4499"/><rect fill="#1F4499" height="9.047" width="9.046" x="395.43" y="321.255"/><rect fill="#1F4499" height="9.047" width="9.047" x="317.63" y="308.114"/><rect fill="#1F4499" height="9.047" width="9.046" x="394.886" y="226.258"/><rect fill="#1F4499" height="9.047" width="9.047" x="112.957" y="146.895"/><rect fill="#1F4499" height="9.047" width="9.047" x="123.706" y="184.499"/><rect fill="#1F4499" height="9.047" width="9.047" x="155.479" y="160.23"/><rect fill="#1F4499" height="9.047" width="9.047" x="344.622" y="283.845"/><rect fill="#1F4499" height="9.047" width="9.047" x="307.789" y="260.523"/><rect fill="#1F4499" height="9.081" width="9.081" x="171.99" y="371.362"/><rect fill="#1F4499" height="9.081" width="9.081" x="195.238" y="371.362"/><rect fill="#1F4499" height="9.081" width="9.082" x="241.632" y="371.362"/><rect fill="#1F4499" height="9.081" width="9.082" x="103.871" y="372.527"/><rect fill="#1F4499" height="9.081" width="9.082" x="149.364" y="371.362"/><rect fill="#1F4499" height="9.081" width="9.081" x="218.486" y="371.362"/><rect fill="#1F4499" height="8.305" width="8.306" x="328.676" y="411.985"/><rect fill="#1F4499" height="8.305" width="8.306" x="371.106" y="411.985"/><rect fill="#1F4499" height="8.305" width="8.306" x="349.938" y="411.985"/><rect fill="#1F4499" height="9.081" width="9.082" x="126.738" y="371.362"/><path d="M375.735,277.092c7.797,0,14.227,6.754,14.983,15.373c-0.032,0.564-0.055,1.132-0.055,1.704h0.131h9.869  h0.131c0-0.572-0.022-1.14-0.055-1.704c0.757-8.619,7.188-15.373,14.984-15.373v-10c-0.021,0-0.044,0.002-0.065,0.002v-0.267  c-7.797,0-14.228-6.754-14.984-15.373c0.032-0.564,0.055-1.131,0.055-1.704h-0.131h-9.869h-0.131c0,0.573,0.022,1.14,0.055,1.704  c-0.757,8.619-7.187,15.373-14.983,15.373v10c0.022,0,0.044-0.002,0.065-0.002V277.092z M395.664,266.051  c1.603,2.289,3.535,4.292,5.718,5.935c-2.156,1.631-4.065,3.617-5.652,5.883c-1.603-2.289-3.534-4.293-5.717-5.934  C392.168,270.302,394.078,268.317,395.664,266.051z" fill="#1F4499"/><path d="M242.306,155.741c0,0.573,0.021,1.14,0.055,1.704c-0.757,8.619-7.188,15.373-14.984,15.373v10  c0.022,0,0.044-0.001,0.065-0.001v0.266c7.797,0,14.228,6.754,14.984,15.373c-0.032,0.564-0.055,1.132-0.055,1.704h0.131h9.869  h0.131c0-0.572-0.022-1.14-0.055-1.704c0.757-8.619,7.187-15.373,14.983-15.373v-10c-0.021,0-0.043,0.002-0.065,0.002v-0.267  c-7.796,0-14.227-6.754-14.983-15.373c0.032-0.564,0.055-1.131,0.055-1.704h-0.131h-9.869H242.306z M247.371,172.042  c1.603,2.289,3.534,4.293,5.717,5.934c-2.155,1.633-4.065,3.618-5.651,5.884c-1.603-2.289-3.535-4.292-5.718-5.934  C243.875,176.294,245.784,174.309,247.371,172.042z" fill="#1F4499"/><path d="M133.597,111.243h10.751c-1.041,2.237-1.641,4.724-1.641,7.355c0,9.57,7.701,17.355,17.168,17.355h70.937  c9.57,0,17.356-7.785,17.356-17.355c0-9.308-7.371-16.905-16.579-17.316c2.028-3.241,3.221-7.058,3.221-11.155  c0-11.644-9.473-21.116-21.116-21.116h-80.097c-11.644,0-21.116,9.473-21.116,21.116S121.953,111.243,133.597,111.243z   M133.597,79.011h80.097c6.129,0,11.116,4.986,11.116,11.116c0,6.129-4.987,11.116-11.116,11.116h-5.341h-10.352v10h10.352h5.341  h17.118c4.057,0,7.356,3.3,7.356,7.355s-3.3,7.355-7.356,7.355h-70.937c-3.952,0-7.168-3.3-7.168-7.355s3.216-7.355,7.168-7.355  h4.409h3.481v-10h-3.481h-4.409h-26.278c-6.13,0-11.116-4.987-11.116-11.116C122.48,83.997,127.467,79.011,133.597,79.011z" fill="#1F4499"/></svg>