<?xml version="1.0" ?><svg id="Layer_1" style="enable-background:new 0 0 512 512;" version="1.1" viewBox="0 0 512 512" xml:space="preserve" xmlns="http://www.w3.org/2000/svg" xmlns:xlink="http://www.w3.org/1999/xlink"><style type="text/css">
	.st0{fill:#D87459;}
	.st1{fill-rule:evenodd;clip-rule:evenodd;fill:#843D1C;}
	.st2{fill:#564E43;}
	.st3{fill:#DCC5A1;}
	.st4{fill:#EDD9B4;}
	.st5{fill:#BC9F82;}
	.st6{fill:#D43329;}
	.st7{fill:#CA3029;}
	.st8{fill:#A82623;}
	.st9{fill:#342214;}
	.st10{fill:#C93938;}
	.st11{fill:#BE1E2D;}
</style><g><path class="st0" d="M210.4,330v23.3h91.1V330c27.1,37.8,84.8,44.9,130.8,55.2c2.3,0.5,4.5,1.2,6.6,1.9   c20.8-33.2,32.8-72.3,32.8-114.3C471.7,153.6,375.1,57,256,57C136.9,57,40.3,153.6,40.3,272.8c0,42,12,81.2,32.8,114.3   c2.1-0.8,4.3-1.4,6.6-1.9C125.7,374.9,183.4,367.8,210.4,330z"/><path class="st1" d="M203.8,36.5c17.1-15.9,108.8-28.1,145.5,31.8c36.7,59.9,17.1,45.2,37.9,83.2c20.8,37.9,20.8,42.8,1.2,69.7   c-19.6,26.9-40.3,47.7-23.2,66c17.1,18.3,24.5,28.1,7.3,53.8c-17.1,25.7,41.6,55,18.3,86.8c-23.2,31.8-231.1,41.6-244.6,4.9   c-13.5-36.7,8.6-62.4-4.9-80.7c-13.5-18.4-34.2-36.7,0-62.4c19.8-14.9-8.9-28.9-22.7-54.7c-15.7-29.3-5.8-66,1.9-77.3   C139,130.7,135.3,29.2,203.8,36.5"/><path class="st2" d="M301.6,353.3C301.5,353.4,301.4,353.5,301.6,353.3l-91.1,0c0.1,0.2,0.1,0.1,0,0l21.2,133.8   c8,0.9,16.1,1.4,24.3,1.4h0c8.2,0,16.3-0.5,24.3-1.4L301.6,353.3z"/><path class="st3" d="M256,339.2c-11.7,0-28.3-7.5-45.5-20.8V330v23.3c0.3,0.3,0.6,0.6,0.8,1c12.4,15.2,28.6,23.2,44.7,23.3   L256,339.2C256,339.2,256,339.2,256,339.2z"/><path class="st4" d="M256,377.6c16.2,0.1,32.3-7.5,44.7-23.3c0.3-0.3,0.6-0.7,0.9-1V330v-11.6c-17.2,13.3-33.8,20.8-45.6,20.8   V377.6z"/><path class="st5" d="M256,339.2V196.5c-22.8,0-45.6,15.1-45.6,45.2v76.7C227.7,331.7,244.3,339.2,256,339.2   C256,339.2,256,339.2,256,339.2z"/><path class="st5" d="M256,196.5v142.8c11.7,0,28.3-7.5,45.6-20.8v-76.7C301.6,211.6,278.8,196.5,256,196.5z"/><path class="st1" d="M323.6,173.7c19.9,22.6,29.8,42.2,22.2,66.3c-7.7,24.2-4.6,42.8,22.2,58.2c26.7,15.4,17.1,18.4,10.9,46.3   c-3.8,17.4,10.7,33.2,30.2,33.2c3.7,0-20.1-8.7-17-26.4c5-28.5,31-44.3,6.1-71.3c-24.9-27-16.2-30.8-8.9-47.7   c7.3-17-13.3-49-39-75.8C193.3-7.4,303.7,151.1,323.6,173.7"/><path class="st1" d="M190.7,178.9c-20.9,21.8-31.6,40.9-24.9,65.4c6.7,24.5,2.8,43-24.6,57.2c-27.3,14.2-17.8,17.6-12.8,45.8   c3.1,17.5-12.1,32.7-31.6,31.9c-3.7-0.2,20.5-7.9,18.1-25.7c-3.8-28.7-29.1-45.6-3.1-71.5c26-25.9,17.5-30.1,10.9-47.3   c-6.6-17.2,15.3-48.3,42.1-74.1C328.5,3.4,211.6,157.2,190.7,178.9"/><g><path class="st3" d="M254.7,49.1L254.7,49.1c-79.2,0-116.5,70.3-112.8,131.6c-4.6-2.9-9.4-3.7-13.4-2c-9.2,4-11.2,20.1-4.3,36.1    c6.9,16,19.9,25.7,29.2,21.7c1.3-0.6,2.4-1.4,3.4-2.4c25,50.4,73.2,83.7,97.9,83.7h0c0.4,0,0.9-0.1,1.3-0.1V49.1    C255.6,49.1,255.2,49.1,254.7,49.1z"/><path class="st4" d="M383.5,178.7c-4.8-2.1-10.6-0.4-16.1,3.9C372,121.2,335.1,49.9,256,49.1v268.7c25.3-1.1,73.3-34.9,97.6-85.6    c1.3,1.9,3,3.4,5,4.3c9.2,4,22.3-5.8,29.2-21.7C394.6,198.8,392.7,182.6,383.5,178.7z"/></g><path class="st1" d="M208,78.2c7,34.2,43.3,52.3,77.5,57.4c34.2,5,64.4,5,45.3,28.2c-19.1,23.1-8.1,44.3,10.1,57.4   c18.1,13.1,12.1,48.3-4,70.4c-16.1,22.1-20.1,41.3-1,62.4c19.1,21.1,9.1,21.9-7,48.1c-10,16.3-2.4,35.2,15.8,39.5   c3.4,0.8-15.5-13.1-6-29.9c15.3-27,36.5-36.6,23.5-68.8c-13.1-32.2-5-33.2,8-48.3c13.1-15.1,18.1-53.3,2-84.5   c-16.1-31.2,11.1-21.1,8-59.4C377.1,112.4,283.5-28.5,208,78.2"/><path class="st1" d="M303.4,71.5c22.5,20.1,34.6,39.9,29.9,64.8c-4.8,24.9,0.6,43.1,28.9,55.1c28.3,12.1,19.1,16.2,16.3,44.7   c-1.8,17.7,14.6,31.7,33.9,29.3c3.7-0.4-21-6.2-20-24.2c1.6-28.9,25.5-47.7-2.4-71.5c-27.9-23.9-30.5-31.7-25.3-49.4   c5.3-17.7-8.7-43.6-37-67.5C293.6,23.7,281,51.4,303.4,71.5"/><path class="st1" d="M204.2,71.5c-22.5,20.1-34.6,39.9-29.9,64.8c4.8,24.9-0.6,43.1-28.9,55.1c-28.4,12.1-19.1,16.2-16.3,44.7   c1.7,17.7-14.6,31.7-33.9,29.3c-3.7-0.4,21-6.2,20-24.2c-1.6-28.9-25.5-47.7,2.4-71.5c27.9-23.9,30.5-31.7,25.3-49.4   c-5.2-17.7,8.7-43.6,37-67.5C214,23.7,226.7,51.4,204.2,71.5"/><path class="st1" d="M268.4,49.3c-23.6,13.7-105,92.8-114.1,120.5c-9.2,27.7,0.4,50.3,5.9,70.6C140.3,235.4,91,13.3,268.4,49.3"/><g><g><path class="st6" d="M268.5,261.2c0,0,0.5,7.9-13,7.9c-3.9,0-12.8-1.7-12.8-7.7C250.6,263.4,260,263.8,268.5,261.2"/><path class="st7" d="M260.6,258c3,0.4,8.2,3.1,7.9,3.2c-8.4,2.6-17.9,2.1-25.8,0.2c-0.1,0-0.2,0-0.2-0.1c2.7-1.1,6.2-3.4,8.8-3.2     c1.4,0.1,3.1,1.2,4.4,1.2C257.5,259.4,258.7,257.7,260.6,258"/><path class="st8" d="M238.2,260.2c10.1,4.2,24.3,4.6,34.2-0.2c0.2-0.1,0.1-0.5-0.2-0.4C260.3,263.4,250.3,262.7,238.2,260.2     C238.2,260.1,238.2,260.2,238.2,260.2"/></g><path class="st9" d="M208.5,178.8c6.4,0,11.7,5.9,11.7,13.3c0,7.3-5.2,13.3-11.7,13.3c-6.5,0-11.7-5.9-11.7-13.3    C196.8,184.8,202.1,178.8,208.5,178.8"/><path class="st9" d="M303.5,178.8c6.4,0,11.7,5.9,11.7,13.3c0,7.3-5.2,13.3-11.7,13.3c-6.5,0-11.7-5.9-11.7-13.3    C291.8,184.8,297,178.8,303.5,178.8"/></g><path class="st10" d="M210.4,353.3L210.4,353.3C210.3,353.1,210.4,353.2,210.4,353.3z"/><path class="st10" d="M210.4,353.3L210.4,353.3C210.5,353.4,210.6,353.5,210.4,353.3z"/><path class="st10" d="M301.6,353.3L301.6,353.3C301.6,353.2,301.7,353.1,301.6,353.3z"/><path class="st10" d="M301.6,353.3L301.6,353.3C301.4,353.5,301.5,353.4,301.6,353.3z"/><path class="st11" d="M301.6,353.3C301.4,353.5,301.5,353.4,301.6,353.3C301.6,353.2,301.7,353.1,301.6,353.3z"/><path class="st11" d="M210.4,353.3C210.5,353.4,210.6,353.5,210.4,353.3C210.3,353.1,210.4,353.2,210.4,353.3z"/><path class="st10" d="M231.7,487.1l-21.2-133.8c-0.1-0.1-0.1-0.2,0,0V330c-27.1,37.8-84.8,44.9-130.8,55.2   c-2.3,0.5-4.5,1.2-6.6,1.9C107.1,441.5,164.8,479.6,231.7,487.1z"/><path class="st10" d="M301.6,330v23.3c0.1-0.2,0.1-0.1,0,0l-21.2,133.8c66.9-7.5,124.6-45.6,158.6-100c-2.1-0.8-4.3-1.4-6.6-1.9   C386.3,374.9,328.6,367.8,301.6,330z"/></g></svg>