<?xml version="1.0" ?><svg id="Layer_1" style="enable-background:new 0 0 512 512;" version="1.1" viewBox="0 0 512 512" xml:space="preserve" xmlns="http://www.w3.org/2000/svg" xmlns:xlink="http://www.w3.org/1999/xlink"><style type="text/css">
	.st0{fill:#B9DAF3;}
	.st1{fill:#D1E6F7;}
	.st2{fill:#EDD9B4;}
	.st3{fill:#DCC5A1;}
	.st4{fill-rule:evenodd;clip-rule:evenodd;fill:#BC9F82;}
	.st5{fill-rule:evenodd;clip-rule:evenodd;fill:#89BCE5;}
	.st6{fill:#FDDECC;}
	.st7{fill:#0B0C14;}
	.st8{fill-rule:evenodd;clip-rule:evenodd;}
	.st9{fill:#342214;}
	.st10{fill:#FFFFFF;}
	.st11{fill:#89BCE5;}
</style><g><path class="st0" d="M373.4,437.2c0,0,0.8,5.8,2,15.3c25.5-16.9,47.1-39.1,63.4-65c-2.9-5.9-5.9-10.6-9.3-13.6   c-11-9.7-37.8-30.8-130.5-71.5l-36.5-0.2v-3.1h-33.4v3.3l-16,0.1c-92.7,40.6-119.5,61.7-130.5,71.5c-3.4,3-6.5,7.7-9.3,13.6   c16.3,25.9,37.9,48.1,63.4,65c1.2-9.5,2-15.3,2-15.3v0l0,0c0,0,0,6.2,0,16.6c33.8,21.9,74.1,34.7,117.3,34.7   c43.3,0,83.6-12.7,117.3-34.7C373.4,443.4,373.4,437.2,373.4,437.2z"/><path class="st1" d="M82.6,373.9c11-9.7,37.8-30.8,130.5-71.5l16-0.1v-3.3h33.4v3.1l36.5,0.2c92.7,40.6,119.5,61.7,130.5,71.5   c3.4,3,6.5,7.7,9.3,13.6c20.9-33.2,33-72.5,33-114.7C471.7,153.6,375.1,57,256,57S40.3,153.6,40.3,272.8c0,42.1,12.1,81.5,33,114.7   C76.1,381.6,79.2,376.9,82.6,373.9z"/><path class="st2" d="M256,179.3V346c16.3,0.1,32.6-7.2,45-22.3V220.9C301,193.1,278.5,179.3,256,179.3z"/><path class="st3" d="M211,220.9v102.7c12.4,14.6,28.7,22.2,45,22.3V179.3C233.5,179.3,211,193.1,211,220.9z"/><path class="st4" d="M301,220.9v68.8c-17,12.4-33.4,19.4-45,19.4c-11.6,0-28-7-45-19.4v-68.8C211,165.4,301,165.4,301,220.9"/><polygon class="st5" points="301,303.3 336.5,319.5 291.3,382.2 256,346  "/><polygon class="st5" points="211,303.3 175.5,319.5 220.7,382.2 256,346  "/><path class="st2" d="M257.1,261.5c0.3,0,0.5,0,0.8,0c22-1,3.7,24.7,31.7,9.7c28-15,26.8-58.7,12.8-59.7c-13.9-1-25.4,8.9-45.2,9   h-0.2c-0.3,0-0.6,0-0.9,0v41C256.4,261.5,256.7,261.5,257.1,261.5z"/><path class="st6" d="M256,291.9L256,291.9L256,291.9c0.1,0,0.1,0,0.2,0C256.1,291.9,256.1,291.9,256,291.9L256,291.9z"/><path class="st6" d="M251.4,291.5c-0.3-0.1-0.7-0.1-1-0.2C250.7,291.4,251.1,291.4,251.4,291.5z"/><path class="st3" d="M213.1,212.5c-14,1-18.2,42.7,9.8,57.7c27.1,14.5,13.9-8.2,33.1-8.7v-41C236.6,220.2,226.9,211.5,213.1,212.5z   "/><path class="st6" d="M252.8,291.7c1.1,0.1,2.2,0.2,3.2,0.2v0C255,291.9,253.9,291.8,252.8,291.7z"/><g><path class="st2" d="M373,156.3c-4.2-1.4-8.9,0.5-13.2,4.5c4-56.3-11.6-124.4-103.8-124.4h0v176.5c0.2,0,0.5,0,0.8,0h0.3    c15.6-0.2,42.4-15.6,53.2-3.4c16.1,18.4,3.7,52.9-10.1,62.2c19-13.2,36.8-29.7,42.7-38.3c2.2-3.2,6.4-14.3,10.2-29.8    c1,1,2.3,1.8,3.6,2.3c7.9,2.6,18-6.4,22.5-20.1C383.7,172.1,380.9,158.9,373,156.3z"/><path class="st3" d="M152,158.8c-3.6-2.6-7.3-3.6-10.7-2.5c-7.9,2.6-10.7,15.8-6.2,29.5c4.5,13.7,14.6,22.7,22.5,20.1    c0.6-0.2,1.2-0.5,1.7-0.8c3.7,14.7,7.7,25.3,9.8,28.3c6.1,9,25.1,26.4,44.9,39.8c-19-16-26.6-47-9.4-63    c11.5-10.7,35.8,2.2,51.4,2.6V36.4C164.9,36.4,148.5,102.9,152,158.8z"/></g><path class="st7" d="M252.8,291.7c-0.5-0.1-0.9-0.1-1.4-0.2C251.9,291.6,252.4,291.6,252.8,291.7z"/><path class="st7" d="M257.1,291.9c0.1,0,0.2,0,0.2,0c-0.4,0-0.8,0.1-1.2,0.1C256.5,291.9,256.8,291.9,257.1,291.9z"/><path class="st7" d="M300,271.9c0.1,0,0.1-0.1,0.2-0.2c-0.2,0.1-0.3,0.2-0.5,0.4C299.8,272.1,299.9,272,300,271.9z"/><path d="M310.3,209.6c-10.8-12.3-37.6,3.1-53.2,3.4h-0.3c-0.2,0-0.5,0-0.8,0c-15.6-0.4-39.9-13.4-51.4-2.6c-17.2,16-9.6,47,9.4,63   c12.9,8.8,26.1,15.9,36.4,18c0.3,0.1,0.7,0.2,1,0.2c0.5,0.1,0.9,0.1,1.4,0.2c1.1,0.1,2.2,0.2,3.2,0.2h0c0.1,0,0.1,0,0.2,0   c0.4,0,0.8,0,1.2-0.1c11-0.7,26.8-9.6,42.3-19.7c0.2-0.1,0.3-0.2,0.5-0.4C314,262.5,326.4,228,310.3,209.6z M289.6,271.2   c-28,15-9.7-10.7-31.7-9.7c-0.3,0-0.5,0-0.8,0c-0.4,0-0.7,0-1.1,0c-19.2,0.5-6,23.2-33.1,8.7c-28-15-23.8-56.7-9.8-57.7   c13.8-1,23.5,7.7,42.9,8c0.3,0,0.6,0,0.9,0h0.2c19.9-0.1,31.3-10,45.2-9C316.3,212.5,317.5,256.2,289.6,271.2z"/><path class="st8" d="M256.2,88.3c-46.7,0.2-90.4-1.9-99.3,100.5c-22.7-80.1,8.3-166,97.6-165.3c92.4,0.8,125.8,85.8,100.3,165.4   C334,79,298.5,88.1,256.2,88.3"/><g><path class="st9" d="M216.7,158.6c5.5,0,10,5.1,10,11.3c0,6.3-4.5,11.3-10,11.3c-5.5,0-10-5.1-10-11.3    C206.7,163.7,211.1,158.6,216.7,158.6"/><path class="st9" d="M297.7,158.6c5.5,0,10,5.1,10,11.3c0,6.3-4.5,11.3-10,11.3c-5.5,0-10-5.1-10-11.3    C287.7,163.7,292.2,158.6,297.7,158.6"/><path class="st10" d="M236.6,230.2c3.5,7.8,11.4,13.3,20.6,13.3c9.2,0,17-5.5,20.6-13.3H236.6z"/></g><path class="st11" d="M138.7,453.8c0-10.4,0-16.6,0-16.6l0,0C138.6,437.4,138.6,443.5,138.7,453.8   C138.7,453.8,138.7,453.8,138.7,453.8z"/><path class="st11" d="M373.3,453.8c0.7-0.4,1.4-0.9,2-1.3c-1.2-9.5-2-15.3-2-15.3S373.4,443.4,373.3,453.8z"/><path class="st11" d="M138.6,437.2L138.6,437.2c0,0-0.8,5.7-2,15.3l0,0C137.8,443.1,138.6,437.4,138.6,437.2z"/><path class="st11" d="M138.7,453.8c0-10.3,0-16.4,0-16.6c0,0.1-0.8,5.9-2,15.3C137.3,452.9,138,453.4,138.7,453.8z"/></g></svg>