<?xml version="1.0" ?><svg id="Layer_1" style="enable-background:new 0 0 512 512;" version="1.1" viewBox="0 0 512 512" xml:space="preserve" xmlns="http://www.w3.org/2000/svg" xmlns:xlink="http://www.w3.org/1999/xlink"><style type="text/css">
	.st0{fill:#55969D;}
	.st1{fill-rule:evenodd;clip-rule:evenodd;fill:#A24323;}
	.st2{fill:#288085;}
	.st3{fill:#EDD9B4;}
	.st4{fill:#DCC5A1;}
	.st5{fill-rule:evenodd;clip-rule:evenodd;fill:#BC9F82;}
	.st6{fill:#703D22;}
	.st7{fill:#562C19;}
	.st8{fill:#FFFFFF;}
	.st9{fill:#D43329;}
	.st10{fill:#CA3029;}
	.st11{fill:#A82623;}
	.st12{fill:#342214;}
</style><g><path class="st0" d="M218.8,328.1c0.4,0.6,16.1,1.1,33.5,1.7h7.3c17.5-0.6,33.2-1.1,33.5-1.7c23.6,37.1,80.6,54.7,124,64.4   c5.4,1.2,10.1,3.1,14.3,5.6c25.3-35.3,40.2-78.6,40.2-125.4C471.7,153.6,375.1,57,256,57C136.9,57,40.3,153.6,40.3,272.8   c0,46.8,14.9,90.1,40.2,125.4c4.2-2.5,8.9-4.4,14.3-5.6C138.2,382.9,195.2,365.3,218.8,328.1z"/><path class="st1" d="M258.9,395.3c-123,2.5-136.7-142.6-132.3-214.3C134.9,47.3,256.2-6.3,305.7,39.6c52.6,0,77.3,65.4,83.2,140   C396.9,279,360.2,393.2,258.9,395.3"/><path class="st2" d="M249.3,488.4v-94.4l6.7-6.9l0,0l6.7,6.9v94.4c69.6-2.1,130.9-37.2,168.8-90.2c-4.2-2.5-8.9-4.4-14.3-5.6   c-43.4-9.7-100.4-27.3-124-64.4c-0.4,0.6-16.1,1.1-33.5,1.7h-7.3c-17.5-0.6-33.2-1.1-33.5-1.7c-23.6,37.1-80.6,54.7-124,64.4   c-5.4,1.2-10.1,3.1-14.3,5.6C118.4,451.2,179.7,486.3,249.3,488.4z"/><path class="st3" d="M296.9,230.4c0-27-20.4-40.5-40.9-40.5V387l40.9-56.6V230.4z"/><path class="st4" d="M215.1,230.4v100.1L256,387V189.8C235.6,189.8,215.1,203.3,215.1,230.4z"/><path class="st5" d="M296.9,230.4v67c-15.5,12.1-30.4,18.9-40.9,18.9c-10.5,0-25.4-6.8-40.9-18.9v-67   C215.2,176.3,296.9,176.3,296.9,230.4"/><path class="st6" d="M235.8,170.4c-11.8-6.9-29.8-9.5-48.6-8.2c-18.8,1.3-31.9,8.8-32.5,9.2c-0.6,0.4-0.5,4.7-0.5,7.4   c0,2.7,0.3,5,1.2,5.9c0.9,0.9,5.7,2.5,7.4,9.9c1.7,7.4,5.8,23.3,17.3,32.6c11.5,9.3,24.4,11.3,40.1,5.9c15.7-5.4,21.3-18.7,22.5-21   c1.2-2.3,4.6-13.5,6.1-16.4c1.5-2.9,3.3-4.4,5.6-4.4v-14.7C249.7,176.7,247.6,177.3,235.8,170.4 M241.7,195.7   c-1.5,13.2-13.1,35.5-33,36.4c-19.9,0.9-33-11.7-37.4-22.8c-4.4-11.1-6.4-28.4,7.5-35.2c13.9-6.8,34.3-6.8,49-1.2   C242.5,178.5,242.7,186.9,241.7,195.7"/><path class="st7" d="M260,195.7c1.5,2.9,4.9,14.1,6.1,16.4c1.2,2.3,6.8,15.6,22.5,21c15.7,5.4,28.6,3.4,40.1-5.9   c11.5-9.3,15.6-25.2,17.3-32.6c1.7-7.4,6.5-9,7.4-9.9c0.9-0.9,1.2-3.2,1.2-5.9c0-2.7,0.1-7-0.5-7.4c-0.6-0.4-13.7-7.9-32.5-9.2   c-18.8-1.3-36.8,1.3-48.6,8.2c-11.8,6.9-13.9,6.3-18.6,6.3v14.7C256.8,191.4,258.5,192.8,260,195.7 M281,172.9   c14.7-5.6,35.1-5.6,49,1.2c13.9,6.8,11.9,24.2,7.5,35.2c-4.4,11.1-17.5,23.8-37.4,22.8c-19.9-0.9-31.5-23.2-33-36.4   C266.1,186.9,266.3,178.5,281,172.9"/><path class="st4" d="M151.3,163.1c-4.2-2.5-8.5-3.3-12.2-1.7c-8.6,3.7-10.3,18.6-4,33.4c6.3,14.7,18.3,23.7,26.9,20.2   c21.9,50.6,70,84.6,94,84.6V50.7C186.7,50.7,152,108.8,151.3,163.1z"/><path class="st3" d="M375.2,161.4c-4.3-1.9-9.6-0.4-14.5,3.3c0-54.7-34.7-114-104.7-114v248.9c24.2,0,72.7-34.5,94.4-85.7   c0.6,0.4,1.2,0.8,1.8,1c8.6,3.7,20.6-5.3,27-20.1C385.6,180,383.8,165.1,375.2,161.4z"/><polygon class="st8" points="296.9,330.4 256,387 257.5,388.5 285.6,417.6 326,359.1  "/><polygon class="st8" points="215.1,330.4 186,359.1 226.4,417.6 254.5,388.5 256,387  "/><g><g><path class="st9" d="M266.9,255.9c0,0,0.4,6.9-11.4,6.9c-3.4,0-11.2-1.5-11.2-6.7C251.3,257.7,259.5,258.1,266.9,255.9"/><path class="st10" d="M260.1,253c2.6,0.4,7.2,2.8,6.9,2.8c-7.4,2.2-15.7,1.8-22.6,0.2c-0.1,0-0.1,0-0.2-0.1c2.4-1,5.4-3,7.7-2.8     c1.3,0.1,2.7,1,3.8,1C257.3,254.2,258.4,252.8,260.1,253"/><path class="st11" d="M240.4,255c8.9,3.7,21.2,4,29.9-0.1c0.2-0.1,0.1-0.4-0.2-0.4C259.8,257.8,251.1,257.2,240.4,255     C240.4,254.9,240.4,255,240.4,255"/></g><path class="st12" d="M214.5,183.8c5.6,0,10.2,5.2,10.2,11.6c0,6.4-4.6,11.6-10.2,11.6c-5.7,0-10.2-5.2-10.2-11.6    C204.2,189,208.8,183.8,214.5,183.8"/><path class="st12" d="M297.5,183.8c5.6,0,10.2,5.2,10.2,11.6c0,6.4-4.6,11.6-10.2,11.6c-5.7,0-10.2-5.2-10.2-11.6    C287.3,189,291.9,183.8,297.5,183.8"/></g><path class="st1" d="M364.2,196.8C396.4,59,299.4,35.6,242.7,35.6c-63.8,0-111.8,75.7-101.1,163.8c34-20.5,64-61,138.3-127.1   c-10.8,19.4-31.9,54.7-103.6,118.6c38.6,6.4,110.4-42.2,148.7-93.1C334.3,133.9,347.4,173.5,364.2,196.8"/><path class="st8" d="M262.7,393.9L256,387l0,0l-6.7,6.9v94.4c2.2,0.1,4.5,0.1,6.7,0.1v-0.1h0v0.1c2.3,0,4.5,0,6.7-0.1V393.9z"/></g></svg>