<?xml version="1.0" ?><svg id="Layer_1" style="enable-background:new 0 0 512 512;" version="1.1" viewBox="0 0 512 512" xml:space="preserve" xmlns="http://www.w3.org/2000/svg" xmlns:xlink="http://www.w3.org/1999/xlink"><style type="text/css">
	.st0{fill:#A5B6BB;}
	.st1{fill:#7491A0;}
	.st2{fill-rule:evenodd;clip-rule:evenodd;fill:#FBB040;}
	.st3{fill:#BC9F82;}
	.st4{fill:#DCC5A1;}
	.st5{fill:#EDD9B4;}
	.st6{fill-rule:evenodd;clip-rule:evenodd;fill:#DCC5A1;}
	.st7{fill-rule:evenodd;clip-rule:evenodd;fill:#EDD9B4;}
	.st8{fill-rule:evenodd;clip-rule:evenodd;fill:#FFFFFF;}
	.st9{fill:#D43329;}
	.st10{fill:#CA3029;}
	.st11{fill:#A82623;}
	.st12{fill:#342214;}
	.st13{fill:#EDEDED;}
</style><g><path class="st0" d="M214.5,338.6c0.9-1.2,79.5-2.5,80.3-3.7c23.4,36.8,79.9,45.3,122.9,54.9c5.9,1.3,10.9,3.4,15.4,6.2   c24.3-34.9,38.6-77.4,38.6-123.2C471.7,153.6,375.1,57,256,57C136.9,57,40.3,153.6,40.3,272.8c0,45.8,14.3,88.3,38.6,123.2   c4.4-2.8,9.4-4.9,15.2-6.2C136.5,380.3,189.9,373.8,214.5,338.6z"/><path class="st1" d="M256,488.5c73.3,0,138.1-36.6,177.1-92.5c-4.4-2.8-9.5-4.9-15.4-6.2c-43.1-9.6-99.5-18.1-122.9-54.9   c-0.8,1.3-79.4,2.5-80.3,3.7c-24.7,35.2-78,41.7-120.4,51.2c-5.8,1.3-10.8,3.4-15.2,6.2C117.9,451.9,182.7,488.5,256,488.5z"/><path class="st2" d="M228.9,36.8c3.3,0,6.4,0.7,9.3,1.9c4-9,12.7-15.1,22.6-15.1c12.8,0,23.4,10.2,24.9,23.4   c4.2-3.3,9.4-5.3,15-5.3c13.6,0,24.7,11.5,25,25.8c3.4-1.9,7.3-2.9,11.4-2.9c13.8,0,25,11.9,25,26.6c0,4.1-0.9,7.9-2.4,11.3   c1.5-0.3,3.1-0.5,4.7-0.5c13.8,0,25.1,11.9,25.1,26.6c0,5.8-1.8,11.2-4.7,15.5c3.6,4.6,5.9,10.6,5.9,17.1c0,7.9-3.3,15-8.4,19.9   c4.5,4.8,7.3,11.4,7.3,18.7c0,11.1-6.4,20.6-15.5,24.5c4,4.7,6.4,10.9,6.4,17.7c0,12.1-7.6,22.3-18,25.5c0.6,2.3,0.9,4.7,0.9,7.1   c0,14.7-11.6,30.8-25.1,26.6c1,11.4-16.8,32-34.4,20.1c-9.4,30.6-73.8,25.4-86.3,0.1c-13.3,14.6-36.3,2.8-37-14.1   c-14.7,0.4-25.6-12.3-25.6-26.6c0-2.2,0.3-4.3,0.7-6.3c-12-2-21.2-13-21.2-26.3c0-2.9,0.4-5.6,1.2-8.2   c-10.6-3.1-18.3-13.4-18.3-25.6c0-3.3,0.6-6.4,1.6-9.3c-5.8-4.9-9.6-12.4-9.6-20.9c0-7.9,3.3-15.1,8.5-19.9   c-3.9-4.7-6.2-10.8-6.2-17.5c0-10.4,5.7-19.5,13.9-23.8c-0.9-2.7-1.4-5.7-1.4-8.8c0-14.7,11.2-26.6,25-26.6c0.8,0,1.6,0,2.4,0.1   c2.8-9.1,10.2-16.1,19.3-17.8c0-0.5,0-1.1,0-1.6c0-14.7,11.2-26.6,25-26.6c5.2,0,10,1.7,14,4.5C214.4,40.4,221.3,36.8,228.9,36.8"/><g><path class="st3" d="M215.6,250l-1.5,71.6c16.2,12.8,31.5,19.6,42.5,19.6c10.8,0,25.7-6.6,41.6-19l-0.7-72.3    C297.4,195,215.6,195,215.6,250z"/><g><path class="st4" d="M254.6,385.4v-46.8c-10.5-0.2-25.2-7.1-40.5-19.4l-0.6,20.8C222.8,361.6,237.6,384.6,254.6,385.4z"/><path class="st5" d="M298.4,336.7l-0.3-17c-16.3,12.1-31.9,18.9-42.9,18.9c-0.2,0-0.4,0-0.6,0v46.8c0.5,0,0.9,0.1,1.4,0.1     c17.3,0,33-23.7,42.6-45.3c0.1-0.3-0.1,0.3,0,0L298.4,336.7z"/></g></g><g><path class="st6" d="M150.8,195.7c-4.1-2.4-8.3-3.1-11.9-1.6c-8.5,3.6-10.3,18.5-3.9,33.1c6.3,14.7,18.3,23.6,26.8,20    c1.5-0.7,2.9-1.7,3.9-3c23.3,44.6,66.2,74,88.3,74V71.6C179.9,71.6,145.7,138.8,150.8,195.7z"/><path class="st7" d="M372.9,194.2c-4.7-2-10.6-0.1-15.9,4.5c6.5-57.6-27.5-127.1-102.9-127.1h0v246.7h0    c22.7,0,67.2-30.9,90.1-77.4c1.3,3,3.3,5.3,6,6.4c8.5,3.6,20.5-5.3,26.8-20C383.2,212.6,381.4,197.8,372.9,194.2z"/></g><path class="st8" d="M157.3,249.9c4.3,0,7.7-3.5,7.7-7.7c0-4.3-3.5-7.7-7.7-7.7c-4.2,0-7.7,3.5-7.7,7.7   C149.6,246.5,153.1,249.9,157.3,249.9"/><path class="st8" d="M352.8,249.9c4.3,0,7.7-3.5,7.7-7.7c0-4.3-3.5-7.7-7.7-7.7c-4.3,0-7.7,3.5-7.7,7.7   C345,246.5,348.5,249.9,352.8,249.9"/><g><g><path class="st9" d="M268.5,276.3c0,0,0.5,7.9-13.1,7.9c-3.9,0-12.9-1.7-12.9-7.7C250.5,278.4,260,278.8,268.5,276.3"/><path class="st10" d="M260.6,273c3,0.4,8.2,3.2,7.9,3.3c-8.5,2.6-18,2.1-26,0.2c-0.1,0-0.2,0-0.2-0.1c2.7-1.1,6.3-3.4,8.8-3.2     c1.4,0.1,3.1,1.2,4.4,1.2C257.4,274.4,258.7,272.7,260.6,273"/><path class="st11" d="M238.1,275.2c10.2,4.3,24.4,4.7,34.4-0.2c0.2-0.1,0.1-0.5-0.2-0.4C260.3,278.4,250.3,277.8,238.1,275.2     C238.1,275.1,238,275.2,238.1,275.2"/></g><path class="st12" d="M208.2,193.4c6.5,0,11.7,6,11.7,13.3c0,7.4-5.3,13.3-11.7,13.3c-6.5,0-11.8-6-11.8-13.3    C196.5,199.4,201.7,193.4,208.2,193.4"/><path class="st12" d="M303.7,193.4c6.5,0,11.7,6,11.7,13.3c0,7.4-5.3,13.3-11.7,13.3c-6.5,0-11.7-6-11.7-13.3    C291.9,199.4,297.2,193.4,303.7,193.4"/></g><path class="st2" d="M347.7,216.8c77.6-101.1-71.8-159.5-111-159.5c-33.8,0-138.1,94.4-75.6,166.4c-0.6-12.6,0.5-32.5,19.2-39.4   c14.1,0.1,31.8-0.9,32.1-14.7c3,1.4,6.3,2.1,9.7,2.1c11.8,0,21.6-8.8,24-20.4c0.4,0,0.9,0,1.3,0c8.9,0,16.7-5,21-12.5   c4-0.3,7.7-1.7,10.9-3.8c3.6,6.8,10,11.8,17.6,13c2.4,11.7,14.4,31.2,36.2,21.2C343.9,185.4,348.6,200.8,347.7,216.8"/><polygon class="st13" points="277.1,488.5 277.1,488.5 276.8,488.5  "/></g></svg>