<?xml version="1.0" ?><!DOCTYPE svg  PUBLIC '-//W3C//DTD SVG 1.1//EN'  'http://www.w3.org/Graphics/SVG/1.1/DTD/svg11.dtd'><svg enable-background="new 0 0 91 91" height="91px" id="Layer_1" version="1.1" viewBox="0 0 91 91" width="91px" xml:space="preserve" xmlns="http://www.w3.org/2000/svg" xmlns:xlink="http://www.w3.org/1999/xlink"><g><g><g><g><path d="M2.938,20.685c1.389,0,2.514-1.125,2.514-2.512V6.806h11.371c1.387,0,2.512-1.125,2.512-2.512      c0-1.389-1.125-2.514-2.512-2.514H2.938c-1.387,0-2.512,1.125-2.512,2.514v13.879C0.427,19.56,1.552,20.685,2.938,20.685z"/><path d="M2.938,70.087c-1.387,0-2.512,1.125-2.512,2.514v13.881c0,1.389,1.125,2.514,2.512,2.514h13.885      c1.387,0,2.512-1.125,2.512-2.514c0-1.387-1.125-2.512-2.512-2.512H5.452V72.601C5.452,71.212,4.327,70.087,2.938,70.087z"/><path d="M88.017,20.685c1.389,0,2.514-1.125,2.514-2.512V4.294c0-1.389-1.125-2.514-2.514-2.514H74.136      c-1.387,0-2.512,1.125-2.512,2.514c0,1.387,1.125,2.512,2.512,2.512h11.369v11.367C85.505,19.56,86.63,20.685,88.017,20.685z"/><path d="M88.017,88.995c1.389,0,2.514-1.125,2.514-2.514V72.601c0-1.389-1.125-2.514-2.514-2.514      c-1.387,0-2.512,1.125-2.512,2.514V83.97H74.136c-1.387,0-2.512,1.125-2.512,2.512c0,1.389,1.125,2.514,2.512,2.514H88.017z"/><path d="M88.216,42.875h-2.174c-8.701-13.992-24.096-22.638-40.566-22.638c-16.469,0-31.861,8.646-40.561,22.638H2.737      c-1.387,0-2.512,1.125-2.512,2.513c0,1.389,1.125,2.511,2.512,2.511h2.174C13.608,61.892,29.005,70.54,45.476,70.54      c16.473,0,31.869-8.648,40.57-22.641h2.17c1.389,0,2.514-1.122,2.514-2.511C90.729,44,89.604,42.875,88.216,42.875z       M80.005,42.875H66.563C65.7,35.59,61.138,29.44,54.813,26.329C64.851,28.603,73.858,34.46,80.005,42.875z M45.476,61.612      c-8.088,0-14.793-5.959-16.006-13.713h32.016C60.272,55.653,53.565,61.612,45.476,61.612z M29.47,42.875      c1.213-7.756,7.918-13.712,16.006-13.712c8.09,0,14.797,5.957,16.01,13.712H29.47z M36.14,26.329      c-6.324,3.111-10.885,9.261-11.748,16.546H10.95C17.097,34.462,26.103,28.603,36.14,26.329z M10.946,47.899h13.445      c0.863,7.287,5.428,13.439,11.754,16.551C26.103,62.177,17.093,56.317,10.946,47.899z M54.806,64.45      c6.33-3.111,10.895-9.264,11.758-16.551h13.447C73.862,56.317,64.851,62.177,54.806,64.45z"/></g></g></g></g></svg>