<?xml version="1.0" ?><svg id="Layer_1" style="enable-background:new 0 0 50 50;" version="1.1" viewBox="0 0 50 50" xml:space="preserve" xmlns="http://www.w3.org/2000/svg" xmlns:xlink="http://www.w3.org/1999/xlink"><g id="Layer_1_1_"><path d="M26,1h-2v2H1v32h6h10h1.484L13,47.795V49h2v-0.795L20.659,35H24v14h2V35h3.341L35,48.205V49h2v-1.205L31.516,35H49V3H26V1z    M9,33v-2h6v2H9z M47,33H17v-4H7v4H3V5h44V33z"/><polygon points="18,16.414 25,23.414 38.707,9.707 37.293,8.293 25,20.586 18,13.586 8.293,23.293 9.707,24.707  "/><rect height="6" width="2" x="31" y="23"/><rect height="11" width="2" x="36" y="18"/><rect height="16" width="2" x="41" y="13"/></g></svg>