<?xml version="1.0" ?><svg id="Layer_1" style="enable-background:new 0 0 512 512;" version="1.1" viewBox="0 0 512 512" xml:space="preserve" xmlns="http://www.w3.org/2000/svg" xmlns:xlink="http://www.w3.org/1999/xlink"><style type="text/css">
	.st0{fill:#CE6C21;}
	.st1{fill:#DCC5A1;}
	.st2{fill:#EDD9B4;}
	.st3{fill-rule:evenodd;clip-rule:evenodd;fill:#BC9F82;}
	.st4{fill-rule:evenodd;clip-rule:evenodd;fill:#FFFFFF;}
	.st5{fill:#FFFFFF;}
	.st6{fill-rule:evenodd;clip-rule:evenodd;}
	.st7{fill:#342214;}
	.st8{fill:#BE1E2D;}
	.st9{fill:#AC1927;}
</style><g><path class="st0" d="M77.7,370.5c9.6-8.5,30.9-25.4,95.5-55.9l46.5,64.5l36.3-34.5l36.3,34.5l46.5-64.5   c64.5,30.5,85.9,47.4,95.5,55.9c2.9,2.6,5.6,6.3,8.1,10.9c18.7-31.9,29.4-69.1,29.4-108.7C471.7,153.6,375.1,57,256,57   C136.9,57,40.3,153.6,40.3,272.8c0,39.6,10.7,76.8,29.4,108.7C72.1,376.8,74.8,373.1,77.7,370.5z"/><path class="st1" d="M209.7,220.5v105.7c12.7,15,29.5,22.8,46.3,23V177.7C232.9,177.7,209.7,192,209.7,220.5z"/><path class="st2" d="M256,177.7v171.4c16.8,0.1,33.5-7.4,46.3-23V220.5C302.3,192,279.1,177.7,256,177.7z"/><path class="st3" d="M302.3,213.2v70.7c-17.5,12.8-34.4,19.9-46.3,19.9c-11.9,0-28.8-7.2-46.3-19.9v-70.7   C209.7,156.1,302.3,156.1,302.3,213.2"/><path class="st4" d="M206.2,209.7c13,10.2,86.6,9.7,99.6,0C294.5,263.5,221.2,265.1,206.2,209.7"/><g><path class="st1" d="M256,23.5c-87.7,0-108,59.8-107.3,114.6c-3.9-3.2-8.2-4.6-12-3.3c-8.2,2.7-11,16.3-6.4,30.4    c4.6,14.1,15,23.3,23.2,20.7c0.2-0.1,0.4-0.2,0.5-0.2c4.3,21,10.1,36.6,12.7,40.5c11.2,16.5,64.2,60.1,89.3,60.1h0L256,23.5    L256,23.5z"/><path class="st2" d="M374.9,134.8c-3.7-1.2-7.8,0-11.6,3C364,83.1,343.5,23.5,256,23.5v262.8c25.1,0,78.1-43.7,89.3-60.1    c2.6-3.9,8.4-19.4,12.7-40.3c0.1,0,0.1,0.1,0.2,0.1c8.2,2.7,18.5-6.6,23.2-20.7C385.9,151.1,383.1,137.5,374.9,134.8z"/></g><polygon class="st5" points="302.3,298 302.3,298 256,344.6 292.3,379.1 338.8,314.6 338.8,314.6  "/><polygon class="st5" points="209.7,298 209.7,298 256,344.6 219.7,379.1 173.2,314.6 173.2,314.6  "/><path class="st6" d="M256,23.5c-108.6,0-107.5,58.2-107.4,112.3c0.1,43.1,13.6,83.7,18.1,90.3c11.2,16.5,64.2,60.1,89.3,60.1   c25.1,0,78.1-43.7,89.3-60.1c4.5-6.6,18-47.2,18.1-90.3C363.5,81.7,364.6,23.5,256,23.5z M353.8,169c-4.3,39.1-5.9,45.9-17.9,61.2   c-11.9,15.3-40.8,31.4-56.9,39.1c-15.4,7.3-6.8-12.5-23-14.3c-16.1,1.9-7.6,21.6-23,14.3c-16.2-7.7-45.1-23.8-56.9-39.1   c-11.9-15.3-13.6-22.1-17.9-61.2c-4.3-39.1,0.8-109.7,26.3-108c25.5,1.7,41.7,6,71.4,6c29.8,0,45.9-4.2,71.4-6   C352.9,59.3,358,129.8,353.8,169z"/><g><path class="st7" d="M215.3,142.2c5.5,0,10,5.1,10,11.3c0,6.3-4.5,11.3-10,11.3c-5.5,0-10-5.1-10-11.3    C205.3,147.2,209.8,142.2,215.3,142.2"/><path class="st7" d="M296.3,142.2c5.5,0,10,5.1,10,11.3c0,6.3-4.5,11.3-10,11.3c-5.5,0-10-5.1-10-11.3    C286.3,147.2,290.8,142.2,296.3,142.2"/><path class="st5" d="M235.2,213.8c3.5,7.8,11.4,13.3,20.6,13.3c9.2,0,17-5.5,20.6-13.3H235.2z"/></g><polygon class="st8" points="256,488.5 256,488.5 256,488.5  "/><path class="st8" d="M376.7,435.6c0,0,0.7,5.5,1.9,14.6c26-18,47.8-41.5,63.8-68.8c-2.5-4.6-5.2-8.4-8.1-10.9   c-9.6-8.5-30.9-25.4-95.5-55.9l-46.5,64.5L256,344.6l-36.3,34.5l-46.5-64.5c-64.6,30.5-85.9,47.4-95.5,55.9   c-2.9,2.6-5.6,6.3-8.1,10.9c16,27.4,37.8,50.9,63.8,68.8c1.2-9.1,1.9-14.6,1.9-14.6s0,5.9,0,16c34.4,23.3,76,36.9,120.6,36.9   c0,0,0,0,0,0c44.7,0,86.2-13.6,120.7-36.9C376.7,441.6,376.7,435.6,376.7,435.6z"/><path class="st9" d="M135.3,435.6c0,0-0.7,5.5-1.9,14.6c0.6,0.4,1.3,0.9,1.9,1.3C135.3,441.6,135.3,435.6,135.3,435.6z"/><path class="st9" d="M376.7,451.6c0.7-0.4,1.3-0.9,1.9-1.3c-1.2-9.1-1.9-14.6-1.9-14.6S376.7,441.6,376.7,451.6z"/></g></svg>