<?xml version="1.0" ?><!DOCTYPE svg  PUBLIC '-//W3C//DTD SVG 1.1//EN'  'http://www.w3.org/Graphics/SVG/1.1/DTD/svg11.dtd'><svg enable-background="new 0 0 64 64" height="64px" id="CLOUDY_copia" version="1.1" viewBox="0 0 64 64" width="64px" xml:space="preserve" xmlns="http://www.w3.org/2000/svg" xmlns:xlink="http://www.w3.org/1999/xlink"><g><defs><rect height="63.957" id="SVGID_1_" width="63.957" x="0.011" y="0.021"/></defs><clipPath id="SVGID_2_"><use overflow="visible" xlink:href="#SVGID_1_"/></clipPath><path clip-path="url(#SVGID_2_)" d="M44.449,23.372c-0.388,0-1.097-0.182-1.47-1.396   c-0.187-0.602-0.931-1.347-1.527-1.53c-1.219-0.374-1.402-1.083-1.402-1.473c0-0.391,0.184-1.1,1.402-1.474   c0.597-0.184,1.341-0.928,1.527-1.532c0.373-1.211,1.082-1.393,1.47-1.393c0.389,0,1.1,0.183,1.468,1.399   c0.186,0.596,0.93,1.341,1.528,1.525c1.217,0.374,1.399,1.083,1.399,1.474c0,0.389-0.183,1.099-1.401,1.473   c-0.597,0.185-1.341,0.929-1.528,1.533C45.549,23.19,44.838,23.372,44.449,23.372z M42.962,18.973   c0.582,0.374,1.111,0.903,1.485,1.487c0.377-0.585,0.904-1.114,1.487-1.487c-0.583-0.373-1.112-0.902-1.487-1.485   C44.073,18.072,43.544,18.6,42.962,18.973z M33.123,17.794c-0.388,0-1.096-0.181-1.47-1.395c-0.187-0.601-0.93-1.346-1.527-1.529   c-1.219-0.376-1.4-1.084-1.4-1.474c0-0.39,0.182-1.099,1.4-1.473c0.597-0.184,1.34-0.928,1.529-1.533   c0.372-1.21,1.08-1.392,1.468-1.392c0.391,0,1.099,0.182,1.468,1.399c0.186,0.596,0.93,1.342,1.528,1.525   c1.216,0.374,1.397,1.083,1.399,1.473c0,0.389-0.182,1.098-1.399,1.474c-0.599,0.183-1.343,0.929-1.53,1.533   C34.222,17.612,33.514,17.794,33.123,17.794z M31.637,13.396c0.582,0.374,1.11,0.901,1.485,1.486   c0.376-0.585,0.905-1.113,1.486-1.486c-0.583-0.373-1.111-0.902-1.487-1.485C32.747,12.496,32.219,13.023,31.637,13.396z    M44.447,26.469c-0.646,0-1.298,0.067-2.01,0.209c-2.422-4.101-6.791-6.617-11.581-6.617c-3.997,0-7.662,1.813-10.163,4.713   c-1.073-3.659-0.443-7.669,1.785-10.817c0.226-0.319,0.245-0.74,0.05-1.078c-0.196-0.337-0.556-0.535-0.958-0.496   c-2.12,0.198-4.116,0.832-5.932,1.88c-6.012,3.473-8.709,10.816-6.49,17.332c-1.879,1.829-3.056,4.375-3.056,7.2   c0,5.548,4.513,10.06,10.062,10.06h28.295c6.172,0,11.192-5.021,11.192-11.193C55.64,31.49,50.619,26.469,44.447,26.469z    M16.636,15.996c0.963-0.557,1.986-0.978,3.057-1.259c-1.84,3.72-2.02,8.118-0.43,12.009c-0.009,0.015-0.016,0.03-0.024,0.046   c-0.131,0.226-0.25,0.457-0.368,0.691c-0.232,0.455-0.444,0.914-0.62,1.378c-0.015,0.039-0.037,0.074-0.051,0.113   c-0.632-0.145-1.233-0.212-1.823-0.228c-1.419-0.057-2.749,0.202-3.991,0.733c-0.55,0.224-1.069,0.504-1.565,0.817   C9.294,24.844,11.649,18.875,16.636,15.996z M44.447,46.857H16.152c-4.446,0-8.063-3.617-8.063-8.062   c0-2.459,1.129-4.635,2.869-6.116c0.001-0.001,0.002-0.001,0.002-0.001c0.361-0.308,0.741-0.575,1.133-0.81   c0.054-0.031,0.109-0.059,0.164-0.09c0.339-0.193,0.687-0.361,1.045-0.501c0.195-0.074,0.399-0.128,0.6-0.187   c0.25-0.075,0.497-0.158,0.753-0.208c0.486-0.092,0.984-0.151,1.496-0.151c0.744,0,1.531,0.135,2.408,0.412   c0.258,0.079,0.538,0.053,0.778-0.075c0.238-0.13,0.414-0.35,0.486-0.611c0.154-0.557,0.361-1.088,0.592-1.604   c0.215-0.467,0.469-0.929,0.754-1.383c2.055-3.284,5.679-5.41,9.685-5.41c4.301,0,8.2,2.382,10.182,6.217   c0.215,0.413,0.675,0.625,1.136,0.509c0.854-0.218,1.577-0.32,2.273-0.32c5.069,0,9.193,4.125,9.193,9.195   C53.641,42.733,49.517,46.857,44.447,46.857z" fill="#242C35"/></g></svg>